<svg xmlns="http://www.w3.org/2000/svg" width="2000" height="2000" viewBox="0 0 529.167 529.167">
    <path fill="#011627" d="M0-.014h529.18v529.181H0z"/>
    <g aria-label="equk▯" fill="#fff" stroke-width=".265">
        <path d="M113.042 268.537H53.046q.62 29.068 26.665 29.068 15.115 0 28.68-5.892v12.403q-12.867 5.813-28.215 5.813-18.991 0-30.386-11.55-11.394-11.626-11.394-31.935 0-20.62 10.464-32.634 10.542-12.092 28.138-12.092 16.433 0 26.2 10.387 9.844 10.387 9.844 27.672zm-59.686-11.473h44.416q0-23.642-21.084-23.642-21.317 0-23.332 23.642zM192.185 234.74h.62l2.093-11.472h11.394v123.248h-14.107v-36.354q0-3.178.93-13.178h-.93q-8.76 12.945-24.96 12.945-15.58 0-24.495-11.55-8.836-11.626-8.836-32.4 0-20.93 8.914-32.557 8.914-11.704 24.417-11.704 16.045 0 24.96 13.022zm0 34.417v-3.178q0-17.596-5.426-25.038-5.349-7.519-17.131-7.519-21.084 0-21.084 32.712 0 32.09 21.239 32.09 11.782 0 16.898-6.82 5.194-6.9 5.504-22.247zM289.93 308.38l-2.092-11.396h-.775q-8.14 12.945-25.89 12.945-30.309 0-30.309-31.083v-55.578h14.108v54.803q0 20.154 18.294 20.154 12.48 0 18.216-7.132 5.736-7.209 5.736-23.642v-44.183h14.107v85.111zM343.338 265.514l10.465-11.783 30.618-30.463h17.208l-38.292 36.82 40.463 48.291h-16.511l-33.021-39.067-10 6.356v32.711h-13.952V187.766h13.952v55.346l-1.24 22.402zM432.092 318.921h40.85v-103.56h-40.85zm-8.836 8.837V206.525h58.523v121.233z" style="-inkscape-font-specification:'Droid Sans Mono'"/>
    </g>
</svg>
